<svg width="73" height="17" viewBox="0 0 73 17" fill="none" xmlns="http://www.w3.org/2000/svg">
<path d="M7.01386 6.82778C7.01386 8.95198 5.6416 10.3175 3.65941 10.3175C2.28713 10.3175 1.52473 9.55889 1.0673 8.64852C1.0673 8.95198 1.06729 9.71062 0.914818 10.1658H0V0H1.21979V4.55186C1.67722 3.79321 2.43961 3.33802 3.65941 3.33802C5.79408 3.33802 7.01386 4.70358 7.01386 6.82778ZM5.79407 6.82778C5.79407 5.3105 4.87922 4.40012 3.65941 4.40012C2.13465 4.40012 1.52476 5.61395 1.52476 6.67605V6.97951C1.52476 8.04161 2.13466 9.25544 3.8119 9.25544C4.87923 9.25544 5.79407 8.34507 5.79407 6.82778Z" fill="#474359"/>
<path d="M8.84292 13.3522C8.23301 13.3522 7.77557 13.2005 7.77557 13.2005L8.08054 12.1384C8.08054 12.1384 8.38549 12.2901 8.84292 12.2901C9.6053 12.2901 9.91023 11.8349 10.0627 11.228L10.3677 10.6211L7.47064 3.6416H8.84292L10.6726 8.3452C10.8251 8.64865 10.8251 8.80038 10.9776 9.10384C10.9776 8.80038 11.1301 8.64865 11.2825 8.3452L13.2647 3.6416H14.637L11.435 11.6832C10.8251 12.4419 10.0627 13.3522 8.84292 13.3522Z" fill="#474359"/>
<path d="M19.6559 16.0646V1.427H22.7807V16.1404H19.6559V16.0646Z" fill="black"/>
<path d="M25.1433 16.0646V1.427H27.9633L32.1552 9.46631V1.427H35.2038V16.1404H32.4601L28.192 7.87362V16.1404H25.1433V16.0646Z" fill="black"/>
<path d="M36.9572 15.5336L37.3382 12.7274C38.329 13.2583 39.6247 13.5617 40.5393 13.5617C41.6063 13.5617 42.3685 13.1825 42.3685 12.1207C42.3685 11.2106 41.6063 10.6038 40.3869 9.84542C38.4815 8.78363 37.0334 7.49431 37.0334 5.37072C37.0334 2.64038 38.9388 1.12354 41.6063 1.12354C42.7496 1.12354 44.0452 1.35106 45.1885 1.88196L44.8074 4.68813C43.7404 4.15723 42.902 3.92971 42.0636 3.92971C41.149 3.92971 40.4631 4.30892 40.4631 5.29487C40.4631 6.20498 41.149 6.81172 42.3685 7.57015C44.2739 8.63194 45.7982 9.92127 45.7982 12.1207C45.7982 14.7752 43.8166 16.292 41.0728 16.292C39.4723 16.3679 38.1004 16.0645 36.9572 15.5336Z" fill="black"/>
<path d="M53.4194 11.0589L52.0476 5.29489L50.6757 11.0589L50.0659 13.5617L49.4562 16.0645H46.2551L50.1422 1.35107H54.0292L57.9162 16.0645H54.6389L54.0292 13.5617L53.4194 11.0589Z" fill="#FF5151"/>
<path d="M59.2118 16.0646V1.427H62.3367V16.1404H59.2118V16.0646Z" fill="#FF5151"/>
<path d="M73.007 1.42692V4.23309H69.9584V16.1404H66.8335V4.15725H63.8611V1.35107H73.007V1.42692Z" fill="black"/>
</svg>
