<?xml version="1.0" encoding="utf-8"?>
<svg version="1.1" xmlns="http://www.w3.org/2000/svg" xmlns:xlink="http://www.w3.org/1999/xlink" x="0px" y="0px"
	 width="144px" height="144px" viewBox="0 0 144 144" enable-background="new 0 0 144 144" xml:space="preserve">
<g>
	<g>
		<!-- icon -->
		<path fill="#FF5151" d="M132.6,28.3c-1.7-8.6-8.3-15.2-16.9-16.9C106.8,9.7,92.7,8,72,8s-34.8,1.7-43.7,3.4c-8.6,1.7-15.2,8.3-16.9,16.9C9.7,37.2,8,51.3,8,72s1.7,34.8,3.4,43.7c1.7,8.6,8.3,15.2,16.9,16.9c8.9,1.7,23,3.4,43.7,3.4s34.8-1.7,43.7-3.4c8.6-1.7,15.2-8.3,16.9-16.9c1.7-8.9,3.4-23,3.4-43.7S134.3,37.2,132.6,28.3z"/>
		<path fill="#474359" d="M75.5,82.5h-7c-3.9,0-7-3.1-7-7v-7c0-3.9,3.1-7,7-7h7c3.9,0,7,3.1,7,7v7C82.5,79.3,79.3,82.5,75.5,82.5z M68.5,65.5c-1.7,0-3,1.3-3,3v7c0,1.7,1.3,3,3,3h7c1.7,0,3-1.3,3-3v-7c0-1.7-1.3-3-3-3H68.5z"/>
		<path fill="#FFFFFF" d="M32,58h24c1.1,0,2-0.9,2-2s-0.9-2-2-2H46v-6c0-1.1-0.9-2-2-2s-2,0.9-2,2v6H32c-1.1,0-2,0.9-2,2
			S30.9,58,32,58z"/>
		<path fill="#FFFFFF" d="M57.4,38.6c-0.8-0.8-2-0.8-2.8,0s-0.8,2,0,2.8l8,8C63,49.8,63.5,50,64,50s1-0.2,1.4-0.6
			c0.8-0.8,0.8-2,0-2.8L57.4,38.6z"/>
		<path fill="#FFFFFF" d="M88,54c-1.1,0-2,0.9-2,2s0.9,2,2,2h24c1.1,0,2-0.9,2-2s-0.9-2-2-2h-10v-6c0-1.1-0.9-2-2-2s-2,0.9-2,2v6
			H88z"/>
		<path fill="#FFFFFF" d="M80,50c0.5,0,1-0.2,1.4-0.6l8-8c0.8-0.8,0.8-2,0-2.8s-2-0.8-2.8,0l-8,8c-0.8,0.8-0.8,2,0,2.8
			C79,49.8,79.5,50,80,50z"/>
		<path fill="#FFFFFF" d="M56,90c1.1,0,2-0.9,2-2s-0.9-2-2-2H32c-1.1,0-2,0.9-2,2s0.9,2,2,2h10v6c0,1.1,0.9,2,2,2s2-0.9,2-2v-6H56
			z"/>
		<path fill="#FFFFFF" d="M62.6,94.6l-8,8c-0.8,0.8-0.8,2,0,2.8c0.4,0.4,0.9,0.6,1.4,0.6s1-0.2,1.4-0.6l8-8c0.8-0.8,0.8-2,0-2.8
			S63.4,93.8,62.6,94.6z"/>
		<path fill="#FFFFFF" d="M112,86H88c-1.1,0-2,0.9-2,2s0.9,2,2,2h10v6c0,1.1,0.9,2,2,2s2-0.9,2-2v-6h10c1.1,0,2-0.9,2-2
			S113.1,86,112,86z"/>
		<path fill="#FFFFFF" d="M81.4,94.6c-0.8-0.8-2-0.8-2.8,0s-0.8,2,0,2.8l8,8c0.4,0.4,0.9,0.6,1.4,0.6s1-0.2,1.4-0.6
			c0.8-0.8,0.8-2,0-2.8L81.4,94.6z"/>
		<path fill="#FFFFFF" d="M95.5,69.2L61.2,34.8c-1.6-1.6-1.6-4.1,0-5.7c1.6-1.6,4.1-1.6,5.7,0l34.3,34.3L95.5,69.2z"/>
		<path fill="#FFFFFF" d="M95.5,69.2c1.6,1.6,1.6,4.1,0,5.7l-34.3,34.3c-1.6,1.6-1.6,4.1,0,5.7C62,115.6,63,116,64,116
			c1,0,2-0.4,2.8-1.2l34.3-34.3c4.7-4.7,4.7-12.3,0-17l-0.1-0.1l-5.7,5.7L95.5,69.2z"/>
		<path fill="#FFFFFF" d="M80,116c-1,0-2-0.4-2.8-1.2L42.8,80.5c-4.7-4.7-4.7-12.3,0-17l34.3-34.3c1.6-1.6,4.1-1.6,5.7,0
			c1.6,1.6,1.6,4.1,0,5.7L48.5,69.2c-1.6,1.6-1.6,4.1,0,5.7l34.3,34.3c1.6,1.6,1.6,4.1,0,5.7C82,115.6,81,116,80,116z"/>
		<circle fill="#474359" cx="34" cy="42" r="2"/>
		<circle fill="#474359" cx="34" cy="34" r="2"/>
		<circle fill="#474359" cx="42" cy="34" r="2"/>
		<circle fill="#474359" cx="110" cy="42" r="2"/>
		<circle fill="#474359" cx="110" cy="34" r="2"/>
		<circle fill="#474359" cx="102" cy="34" r="2"/>
		<circle fill="#474359" cx="34" cy="102" r="2"/>
		<circle fill="#474359" cx="34" cy="110" r="2"/>
		<circle fill="#474359" cx="42" cy="110" r="2"/>
		<circle fill="#474359" cx="110" cy="102" r="2"/>
		<circle fill="#474359" cx="110" cy="110" r="2"/>
		<circle fill="#474359" cx="102" cy="110" r="2"/>
	</g>
	<g>
		<linearGradient id="SVGID_1_" gradientUnits="userSpaceOnUse" x1="2378.2859" y1="-10037.3975" x2="2380.9319" y2="-10040.043" gradientTransform="matrix(1 0 0 -1 -2283.3059 -9950.7197)">
			<stop offset="0" style="stop-color:#BFBEBE;stop-opacity:0.75"/>
			<stop offset="0.3898" style="stop-color:#DEDEDE;stop-opacity:0.4576"/>
			<stop offset="0.768" style="stop-color:#F6F6F6;stop-opacity:0.174"/>
			<stop offset="1" style="stop-color:#FFFFFF;stop-opacity:0"/>
		</linearGradient>
		<polygon fill="url(#SVGID_1_)" points="96.9,90 91.7,90 95.7,86 100.9,86"/>
	</g>
	<g>
		<linearGradient id="SVGID_00000018233139716639839620000016636571093319381133_" gradientUnits="userSpaceOnUse" x1="241.341" y1="-9875.042" x2="243.9888" y2="-9877.6895" gradientTransform="matrix(0 1 -1 0 -9792.2158 -142.513)">
			<stop offset="0" style="stop-color:#BFBEBE;stop-opacity:0.75"/>
			<stop offset="0.3898" style="stop-color:#DEDEDE;stop-opacity:0.4576"/>
			<stop offset="0.768" style="stop-color:#F6F6F6;stop-opacity:0.174"/>
			<stop offset="1" style="stop-color:#FFFFFF;stop-opacity:0"/>
		</linearGradient>
		<polygon fill="url(#SVGID_00000018233139716639839620000016636571093319381133_)" points="81.4,100.2 84.2,97.4 86.9,100.1 84.1,102.9"/>
	</g>
	<g>
		<linearGradient id="SVGID_00000137850657910769616640000007474890791572003981_" gradientUnits="userSpaceOnUse" x1="82.8267" y1="45.1707" x2="85.4745" y2="42.5229">
			<stop offset="0" style="stop-color:#BFBEBE;stop-opacity:0.75"/>
			<stop offset="0.3898" style="stop-color:#DEDEDE;stop-opacity:0.4576"/>
			<stop offset="0.768" style="stop-color:#F6F6F6;stop-opacity:0.174"/>
			<stop offset="1" style="stop-color:#FFFFFF;stop-opacity:0"/>
		</linearGradient>
		<polygon fill="url(#SVGID_00000137850657910769616640000007474890791572003981_)" points="84.2,46.6 81.4,43.8 84.1,41.1 86.9,43.9"/>
	</g>
	<g>
		<linearGradient id="SVGID_00000005989319924355348300000017402975989492261561_" gradientUnits="userSpaceOnUse" x1="-9853.3789" y1="-115.0365" x2="-9850.7314" y2="-117.6843" gradientTransform="matrix(0 -1 1 0 176.2068 -9808.207)">
			<stop offset="0" style="stop-color:#BFBEBE;stop-opacity:0.75"/>
			<stop offset="0.3898" style="stop-color:#DEDEDE;stop-opacity:0.4576"/>
			<stop offset="0.768" style="stop-color:#F6F6F6;stop-opacity:0.174"/>
			<stop offset="1" style="stop-color:#FFFFFF;stop-opacity:0"/>
		</linearGradient>
		<polygon fill="url(#SVGID_00000005989319924355348300000017402975989492261561_)" points="62.6,43.8 59.8,46.6 57.1,43.9 59.9,41.1"/>
	</g>
	<g>
		<linearGradient id="SVGID_00000000924381115826187400000004674030728287430309_" gradientUnits="userSpaceOnUse" x1="-9685.1777" y1="-10057.5488" x2="-9682.5303" y2="-10060.1973" gradientTransform="matrix(-1 0 0 -1 -9616.0088 -9950.7197)">
			<stop offset="0" style="stop-color:#BFBEBE;stop-opacity:0.75"/>
			<stop offset="0.3898" style="stop-color:#DEDEDE;stop-opacity:0.4576"/>
			<stop offset="0.768" style="stop-color:#F6F6F6;stop-opacity:0.174"/>
			<stop offset="1" style="stop-color:#FFFFFF;stop-opacity:0"/>
		</linearGradient>
		<polygon fill="url(#SVGID_00000000924381115826187400000004674030728287430309_)" points="66.3,104 72,109.7 69.3,112.3 63.7,106.6"/>
	</g>
	<g>
		<linearGradient id="SVGID_00000126295039953100137570000001372208891935270569_" gradientUnits="userSpaceOnUse" x1="-9677.1787" y1="-10049.5469" x2="-9674.5312" y2="-10052.1953" gradientTransform="matrix(-1 0 0 -1 -9616.0088 -9950.7197)">
			<stop offset="0" style="stop-color:#BFBEBE;stop-opacity:0.75"/>
			<stop offset="0.3898" style="stop-color:#DEDEDE;stop-opacity:0.4576"/>
			<stop offset="0.768" style="stop-color:#F6F6F6;stop-opacity:0.174"/>
			<stop offset="1" style="stop-color:#FFFFFF;stop-opacity:0"/>
		</linearGradient>
		<polygon fill="url(#SVGID_00000126295039953100137570000001372208891935270569_)" points="59.8,97.4 62.6,100.2 59.9,102.9 57.1,100.1"/>
	</g>
	<g>
		<linearGradient id="SVGID_00000135663506443378781240000010699243135691068807_" gradientUnits="userSpaceOnUse" x1="67.1406" y1="58.5615" x2="69.7884" y2="55.9137" gradientTransform="matrix(1 0 0 1 7.6867 42.6095)">
			<stop offset="0" style="stop-color:#BFBEBE;stop-opacity:0.75"/>
			<stop offset="0.3898" style="stop-color:#DEDEDE;stop-opacity:0.4576"/>
			<stop offset="0.768" style="stop-color:#F6F6F6;stop-opacity:0.174"/>
			<stop offset="1" style="stop-color:#FFFFFF;stop-opacity:0"/>
		</linearGradient>
		<polygon fill="url(#SVGID_00000135663506443378781240000010699243135691068807_)" points="77.7,104 72,98.3 74.6,95.7 80.3,101.4"/>
	</g>
	<g>
		<linearGradient id="SVGID_00000152982691591475789260000004033473914117757339_" gradientUnits="userSpaceOnUse" x1="-9665.0332" y1="-10037.3975" x2="-9662.3877" y2="-10040.043" gradientTransform="matrix(-1 0 0 -1 -9616.0088 -9950.7197)">
			<stop offset="0" style="stop-color:#BFBEBE;stop-opacity:0.75"/>
			<stop offset="0.3898" style="stop-color:#DEDEDE;stop-opacity:0.4576"/>
			<stop offset="0.768" style="stop-color:#F6F6F6;stop-opacity:0.174"/>
			<stop offset="1" style="stop-color:#FFFFFF;stop-opacity:0"/>
		</linearGradient>
		<polygon fill="url(#SVGID_00000152982691591475789260000004033473914117757339_)" points="47.1,90 52.3,90 48.3,86 43.1,86"/>
	</g>
	<g>
		<linearGradient id="SVGID_00000151527080885642225520000013799545196785679501_" gradientUnits="userSpaceOnUse" x1="2334.6045" y1="444.4103" x2="2337.2502" y2="441.7643" gradientTransform="matrix(1 0 0 1 -2239.6213 -387.0862)">
			<stop offset="0" style="stop-color:#BFBEBE;stop-opacity:0.75"/>
			<stop offset="0.3898" style="stop-color:#DEDEDE;stop-opacity:0.4576"/>
			<stop offset="0.768" style="stop-color:#F6F6F6;stop-opacity:0.174"/>
			<stop offset="1" style="stop-color:#FFFFFF;stop-opacity:0"/>
		</linearGradient>
		<polygon fill="url(#SVGID_00000151527080885642225520000013799545196785679501_)" points="96.9,54 91.7,54 95.7,58 101,58"/>
	</g>
	<g>
		<linearGradient id="SVGID_00000042697467870351627210000005626387538561309324_" gradientUnits="userSpaceOnUse" x1="-9716.1143" y1="444.4103" x2="-9713.4688" y2="441.7643" gradientTransform="matrix(-1 0 0 1 -9667.0977 -387.0862)">
			<stop offset="0" style="stop-color:#BFBEBE;stop-opacity:0.75"/>
			<stop offset="0.3898" style="stop-color:#DEDEDE;stop-opacity:0.4576"/>
			<stop offset="0.768" style="stop-color:#F6F6F6;stop-opacity:0.174"/>
			<stop offset="1" style="stop-color:#FFFFFF;stop-opacity:0"/>
		</linearGradient>
		<polygon fill="url(#SVGID_00000042697467870351627210000005626387538561309324_)" points="47.1,54 52.3,54 48.3,58 43,58"/>
	</g>
	<g>
		<linearGradient id="SVGID_00000062192408067510239910000003531686331325669781_" gradientUnits="userSpaceOnUse" x1="-9692.8652" y1="-10036.1582" x2="-9690.2168" y2="-10038.8057" gradientTransform="matrix(-1 0 0 -1 -9623.6953 -9993.3291)">
			<stop offset="0" style="stop-color:#BFBEBE;stop-opacity:0.75"/>
			<stop offset="0.3898" style="stop-color:#DEDEDE;stop-opacity:0.4576"/>
			<stop offset="0.768" style="stop-color:#F6F6F6;stop-opacity:0.174"/>
			<stop offset="1" style="stop-color:#FFFFFF;stop-opacity:0"/>
		</linearGradient>
		<polygon fill="url(#SVGID_00000062192408067510239910000003531686331325669781_)" points="66.3,40 72,45.7 69.4,48.3 63.7,42.6"/>
	</g>
	<g>
		<linearGradient id="SVGID_00000163032388635020637200000009603297956387939456_" gradientUnits="userSpaceOnUse" x1="74.8278" y1="37.1707" x2="77.4756" y2="34.5229">
			<stop offset="0" style="stop-color:#BFBEBE;stop-opacity:0.75"/>
			<stop offset="0.3898" style="stop-color:#DEDEDE;stop-opacity:0.4576"/>
			<stop offset="0.768" style="stop-color:#F6F6F6;stop-opacity:0.174"/>
			<stop offset="1" style="stop-color:#FFFFFF;stop-opacity:0"/>
		</linearGradient>
		<polygon fill="url(#SVGID_00000163032388635020637200000009603297956387939456_)" points="77.7,40 72,34.3 74.6,31.7 80.3,37.4"/>
	</g>
</g>
</svg>
